HIERARCHY
ROOT Hips
{
 OFFSET 0.000000 0.000000 0.000000
 CHANNELS 6 Xposition Yposition Zposition Yrotation Xrotation Zrotation
 JOINT Chest
 {
  OFFSET 0.000000 9.585900 0.002600
  CHANNELS 3 Yrotation Xrotation Zrotation
  JOINT Chest2
  {
   OFFSET 0.000000 9.601200 -0.005300
   CHANNELS 3 Yrotation Xrotation Zrotation
   JOINT Chest3
   {
    OFFSET 0.000000 9.561800 0.000000
    CHANNELS 3 Yrotation Xrotation Zrotation
    JOINT Chest4
    {
     OFFSET 0.000000 9.552100 0.000000
     CHANNELS 3 Yrotation Xrotation Zrotation
     JOINT Neck
     {
      OFFSET 0.000000 14.453000 0.000000
      CHANNELS 3 Yrotation Xrotation Zrotation
      JOINT Head
      {
       OFFSET 0.000000 8.936500 -0.011300
       CHANNELS 3 Yrotation Xrotation Zrotation
       End Site
       {
        OFFSET 0.000000 17.073600 -0.006000
       }
      }
     }
     JOINT RightCollar
     {
      OFFSET -2.921100 9.558500 0.000000
      CHANNELS 3 Yrotation Xrotation Zrotation
      JOINT RightShoulder
      {
       OFFSET -13.519700 0.000000 0.000000
       CHANNELS 3 Yrotation Xrotation Zrotation
       JOINT RightElbow
       {
        OFFSET 0.000000 -29.696600 0.000000
        CHANNELS 3 Yrotation Xrotation Zrotation
        JOINT RightWrist
        {
         OFFSET 0.000000 -24.004700 0.000000
         CHANNELS 3 Yrotation Xrotation Zrotation
         End Site
         {
          OFFSET 0.000000 -17.728500 0.000000
         }
        }
       }
      }
     }
     JOINT LeftCollar
     {
      OFFSET 2.921100 9.558500 0.000000
      CHANNELS 3 Yrotation Xrotation Zrotation
      JOINT LeftShoulder
      {
       OFFSET 13.519700 0.000000 0.000000
       CHANNELS 3 Yrotation Xrotation Zrotation
       JOINT LeftElbow
       {
        OFFSET 0.000000 -29.696600 0.000000
        CHANNELS 3 Yrotation Xrotation Zrotation
        JOINT LeftWrist
        {
         OFFSET 0.000000 -24.004700 0.000000
         CHANNELS 3 Yrotation Xrotation Zrotation
         End Site
         {
          OFFSET 0.000000 -17.728500 0.000000
         }
        }
       }
      }
     }
    }
   }
  }
 }
 JOINT RightHip
 {
  OFFSET -7.771700 -0.012900 -0.001300
  CHANNELS 3 Yrotation Xrotation Zrotation
  JOINT RightKnee
  {
   OFFSET 0.000000 -40.869800 0.001200
   CHANNELS 3 Yrotation Xrotation Zrotation
   JOINT RightAnkle
   {
    OFFSET 0.000000 -39.717900 0.002100
    CHANNELS 3 Yrotation Xrotation Zrotation
    JOINT RightToe
    {
     OFFSET 0.000000 -4.965400 11.033500
     CHANNELS 3 Yrotation Xrotation Zrotation
     End Site
     {
      OFFSET 0.000000 -1.423100 5.872300
     }
    }
   }
  }
 }
 JOINT LeftHip
 {
  OFFSET 7.771700 -0.012900 -0.001300
  CHANNELS 3 Yrotation Xrotation Zrotation
  JOINT LeftKnee
  {
   OFFSET 0.000000 -40.869800 0.001200
   CHANNELS 3 Yrotation Xrotation Zrotation
   JOINT LeftAnkle
   {
    OFFSET 0.000000 -39.717900 0.002100
    CHANNELS 3 Yrotation Xrotation Zrotation
    JOINT LeftToe
    {
     OFFSET 0.000000 -4.965400 11.033500
     CHANNELS 3 Yrotation Xrotation Zrotation
     End Site
     {
      OFFSET 0.000000 -1.423100 5.872300
     }
    }
   }
  }
 }
}
MOTION
Frames: 7
Frame Time: 0.008333
-4.565590 57.462037 35.922508 174.439467 -47.579375 0.196986 3.333744 26.922182 2.714836 0.486887 4.745400 0.224555 0.764852 7.470520 0.379571 2.489432 22.077215 1.479590 -3.390358 15.395802 0.177459 -6.384700 -7.112855 1.563262 3.575807 4.556596 1.192908 17.722932 -28.343654 -12.714181 37.276199 -63.588685 -17.410501 7.015076 -0.929915 -35.867996 -9.278409 1.454891 -2.055608 -9.160870 -22.268139 7.658270 -62.652906 -61.975929 35.269168 -30.144046 3.378703 15.452660 11.872445 -27.105945 0.150193 -2.890575 68.830479 0.652103 4.267545 12.809795 3.892702 -0.151664 -7.839976 1.679664 -6.409668 -27.129797 -3.591259 30.130230 68.461766 26.411708 -25.535554 3.435485 -2.849690 -0.131118 -0.518957 -0.061460
-4.565359 57.460538 35.931167 174.432294 -47.599051 0.194849 3.331199 26.926211 2.720943 0.485896 4.735880 0.226866 0.761920 7.469631 0.379690 2.495044 22.096962 1.475375 -3.359302 15.439143 0.194407 -6.307683 -7.005283 1.556634 3.573767 4.557984 1.189025 17.723487 -28.348705 -12.710402 37.268682 -63.588471 -17.406259 7.010535 -0.931215 -35.863602 -9.276692 1.459519 -2.051213 -9.155367 -22.269914 7.643436 -62.705651 -61.970557 35.335692 -30.130760 3.386625 15.431912 11.873736 -27.092249 0.156537 -2.906106 68.817501 0.643373 4.273775 12.843740 3.892320 -0.151710 -7.856010 1.679295 -6.425516 -27.111900 -3.580309 30.147374 68.452834 26.423228 -25.537702 3.438945 -2.861764 -0.129127 -0.518285 -0.060974
-4.565664 57.458973 35.939337 174.418551 -47.619060 0.198719 3.339750 26.941266 2.727687 0.473885 4.720843 0.228192 0.760213 7.468486 0.380012 2.490231 22.095938 1.475510 -3.321120 15.488000 0.195739 -6.235954 -6.922337 1.544305 3.557594 4.587392 1.192777 17.750435 -28.361179 -12.717625 37.280489 -63.585559 -17.412838 7.009233 -0.929161 -35.855639 -9.259650 1.480890 -2.064598 -9.156728 -22.274060 7.615307 -62.743827 -61.946102 35.383842 -30.144851 3.386876 15.429425 11.880834 -27.078844 0.158488 -2.925776 68.806092 0.634335 4.284514 12.877760 3.889379 -0.150846 -7.872634 1.679529 -6.438107 -27.091196 -3.570589 30.160194 68.444792 26.426684 -25.528159 3.434295 -2.867502 -0.132149 -0.510933 -0.062927
-4.567456 57.456397 35.947706 174.403940 -47.631323 0.209602 3.334653 26.934842 2.724353 0.472551 4.721144 0.228527 0.758219 7.469070 0.380392 2.465519 22.078996 1.478477 -3.273645 15.539368 0.180411 -6.170265 -6.861336 1.526889 3.575670 4.629641 1.179936 17.723573 -28.394211 -12.686242 37.322391 -63.575187 -17.438858 7.014462 -0.919065 -35.829473 -9.232109 1.520147 -2.082508 -9.148417 -22.276784 7.581778 -62.800153 -61.929411 35.451391 -30.149823 3.385925 15.423430 11.893710 -27.071836 0.139689 -2.916740 68.797151 0.665927 4.295498 12.904798 3.877958 -0.149456 -7.883676 1.679216 -6.448430 -27.082269 -3.571650 30.194129 68.439339 26.447562 -25.499523 3.433329 -2.860700 -0.151310 -0.507575 -0.072177
-4.571900 57.454857 35.954174 174.388648 -47.652232 0.235662 3.323136 26.937411 2.703389 0.458493 4.709211 0.231444 0.768836 7.481820 0.375865 2.470016 22.089346 1.478425 -3.249954 15.554035 0.183280 -6.110451 -6.821801 1.502692 3.578669 4.640575 1.177920 17.705566 -28.404245 -12.670292 37.335069 -63.607721 -17.495249 7.027358 -0.901318 -35.771010 -9.229272 1.536527 -2.077503 -9.142064 -22.268340 7.543051 -62.899729 -61.915130 35.578934 -30.144366 3.384285 15.402021 11.909010 -27.053868 0.110123 -2.922429 68.793704 0.675363 4.310891 12.925510 3.869397 -0.154116 -7.893499 1.680655 -6.467323 -27.064912 -3.593765 30.248655 68.423810 26.482201 -25.467196 3.439821 -2.858937 -0.176362 -0.509251 -0.083709
-4.571367 57.452958 35.960715 174.376456 -47.669839 0.227952 3.304814 26.927075 2.714736 0.465781 4.719104 0.229915 0.774345 7.483507 0.373738 2.473981 22.098151 1.475410 -3.230443 15.560748 0.183132 -6.054521 -6.803169 1.472633 3.563178 4.657025 1.181810 17.694348 -28.415885 -12.654857 37.386925 -63.606480 -17.520885 7.029082 -0.904972 -35.769626 -9.229035 1.564845 -2.074913 -9.133357 -22.287491 7.530669 -63.062283 -61.911246 35.739374 -30.089320 3.411560 15.371207 11.905556 -27.042823 0.122874 -2.902326 68.781481 0.704021 4.308884 12.953924 3.864233 -0.151256 -7.905652 1.678968 -6.485949 -27.048386 -3.582217 30.273280 68.415517 26.517284 -25.468170 3.431065 -2.887003 -0.160706 -0.506071 -0.078666
-4.572451 57.452124 35.965364 174.346276 -47.695125 0.242888 3.310382 26.940232 2.720825 0.464537 4.719585 0.230067 0.751215 7.471050 0.381027 2.482909 22.110230 1.467218 -3.209009 15.571428 0.165546 -5.998313 -6.807584 1.440465 3.540102 4.690728 1.190575 17.698167 -28.431602 -12.651068 37.467035 -63.630836 -17.589778 7.035570 -0.887870 -35.736944 -9.210560 1.582883 -2.091636 -9.133852 -22.281576 7.517907 -63.169447 -61.907378 35.854178 -30.078039 3.423053 15.355975 11.918740 -27.025112 0.125679 -2.905295 68.775216 0.712155 4.312977 12.984803 3.852949 -0.148194 -7.922674 1.682863 -6.487888 -27.024491 -3.578473 30.302162 68.410380 26.543559 -25.465415 3.434466 -2.893906 -0.163864 -0.513533 -0.082189
